<svg width="125" height="125" viewBox="0 0 125 125" fill="none" xmlns="http://www.w3.org/2000/svg">
<circle cx="62.5" cy="62.5" r="62" fill="#8FF1FF" fill-opacity="0.1" stroke="#A5F3FC"/>
<path d="M65.1786 57.1428C64.4682 57.1428 63.7869 57.425 63.2845 57.9274C62.7822 58.4297 62.5 59.111 62.5 59.8214V97.3211C62.5 98.0315 62.7822 98.7128 63.2845 99.2151C63.7869 99.7175 64.4682 99.9997 65.1786 99.9997H97.3212C98.0316 99.9997 98.7129 99.7175 99.2152 99.2151C99.7175 98.7128 99.9997 98.0315 99.9997 97.3211V59.8214C99.9997 59.111 99.7175 58.4297 99.2152 57.9274C98.7129 57.425 98.0316 57.1428 97.3212 57.1428H65.1786Z" fill="#0E7490"/>
<path d="M49.2195 25.7398C48.7213 25.2649 48.0595 25 47.3713 25C46.683 25 46.0212 25.2649 45.5231 25.7398L25.8304 44.4897C25.5679 44.7399 25.359 45.0408 25.2162 45.3741C25.0735 45.7075 24.9999 46.0663 25 46.4289V97.3214C25 98.0318 25.2822 98.7131 25.7845 99.2155C26.2869 99.7178 26.9682 100 27.6786 100H67.0694C67.7797 100 68.461 99.7178 68.9634 99.2155C69.4657 98.7131 69.7479 98.0318 69.7479 97.3214V46.4289C69.7473 46.0659 69.6729 45.7068 69.5292 45.3735C69.3856 45.0401 69.1756 44.7394 68.9122 44.4897L49.2195 25.7398Z" fill="#06B6D4"/>
<path fill-rule="evenodd" clip-rule="evenodd" d="M52.7284 99.9998V89.2856C52.7284 88.5821 52.5898 87.8854 52.3206 87.2355C52.0514 86.5855 51.6568 85.995 51.1593 85.4975C50.6619 85.0001 50.0713 84.6055 49.4213 84.3362C48.7714 84.067 48.0748 83.9285 47.3713 83.9285C46.6678 83.9285 45.9711 84.067 45.3212 84.3362C44.6712 84.6055 44.0807 85.0001 43.5832 85.4975C43.0858 85.995 42.6912 86.5855 42.4219 87.2355C42.1527 87.8854 42.0142 88.5821 42.0142 89.2856V99.9998H52.7284Z" fill="#0E7490"/>
<path fill-rule="evenodd" clip-rule="evenodd" d="M39.9893 49.2678C39.1013 49.2678 38.2497 49.6206 37.6218 50.2485C36.9939 50.8764 36.6411 51.728 36.6411 52.616C36.6411 53.504 36.9939 54.3556 37.6218 54.9835C38.2497 55.6114 39.1013 55.9642 39.9893 55.9642H54.7588C55.6468 55.9642 56.4985 55.6114 57.1264 54.9835C57.7543 54.3556 58.107 53.504 58.107 52.616C58.107 51.728 57.7543 50.8764 57.1264 50.2485C56.4985 49.6206 55.6468 49.2678 54.7588 49.2678H39.9893ZM39.9893 63.2392C39.1013 63.2392 38.2497 63.5919 37.6218 64.2198C36.9939 64.8477 36.6411 65.6993 36.6411 66.5873C36.6411 67.4753 36.9939 68.327 37.6218 68.9549C38.2497 69.5828 39.1013 69.9355 39.9893 69.9355H54.7588C55.6468 69.9355 56.4985 69.5828 57.1264 68.9549C57.7543 68.327 58.107 67.4753 58.107 66.5873C58.107 65.6993 57.7543 64.8477 57.1264 64.2198C56.4985 63.5919 55.6468 63.2392 54.7588 63.2392H39.9893Z" fill="#0E7490"/>
</svg>
