<svg width="75" height="71" viewBox="0 0 75 71" fill="none" xmlns="http://www.w3.org/2000/svg">
<path d="M27.5203 3.78952L27.2047 3.98666C23.0767 6.56546 19.8778 10.3925 18.072 14.9124L17.9607 15.1909L17.6626 15.2239C13.3919 15.6955 9.40125 17.5802 6.32407 20.5788C3.24689 23.5773 1.25958 27.5179 0.677664 31.7749C0.0957481 36.0319 0.952576 40.3613 3.11211 44.0757C5.2046 47.6748 8.40394 50.4967 12.228 52.1244C13.0347 50.993 14.0453 50.0204 15.2093 49.2571C16.4889 48.418 17.9267 47.8497 19.4341 47.587C20.9416 47.3244 22.4869 47.3731 23.9748 47.73C25.4626 48.0869 26.8616 48.7445 28.0858 49.6622L27.5203 3.78952ZM27.5203 3.78952C30.6866 1.88019 34.27 0.764944 37.9644 0.5417C41.7841 0.310885 45.6007 1.04095 49.0656 2.66518C52.5304 4.28942 55.533 6.75603 57.799 9.83965C60.065 12.9233 61.5221 16.5256 62.0372 20.3174L62.0806 20.6366L62.3891 20.7291C66.2462 21.885 69.5599 24.3874 71.7271 27.7809C73.8944 31.1744 74.771 35.2332 74.1976 39.2187C73.6241 43.2041 71.6386 46.8511 68.6024 49.4959C65.8308 51.9102 62.3519 53.3427 58.7036 53.5903L61.8819 50.0159C61.882 50.0157 61.8822 50.0155 61.8823 50.0154C62.8672 48.9158 63.6253 47.6325 64.1131 46.2392C64.6009 44.8457 64.8088 43.3696 64.7248 41.8956C64.6409 40.4216 64.2666 38.9786 63.6236 37.6496C62.9806 36.3205 62.0815 35.1315 60.9779 34.1508C59.8742 33.1701 58.5878 32.417 57.1924 31.9346C55.797 31.4523 54.3201 31.2502 52.8464 31.3401C51.3727 31.4299 49.9313 31.8098 48.6048 32.4581C47.2788 33.1061 46.0937 34.0095 45.1176 35.1165C45.1172 35.1169 45.1169 35.1173 45.1165 35.1177L30.5465 51.5031L28.0862 49.6626L27.5203 3.78952Z" fill="#06B6D4" stroke="black"/>
<path fill-rule="evenodd" clip-rule="evenodd" d="M56.1684 39.5626C56.5632 39.9129 56.8851 40.3375 57.1157 40.8122C57.3463 41.287 57.4811 41.8025 57.5125 42.3293C57.5438 42.8561 57.4711 43.384 57.2984 43.8827C57.1256 44.3814 56.8564 44.8412 56.5059 45.2358L35.0774 69.343C34.4072 70.0963 33.4782 70.5701 32.4749 70.6703C31.4716 70.7706 30.4673 70.4899 29.6613 69.884L18.947 61.8483C18.0945 61.209 17.5309 60.2571 17.3802 59.2022C17.2295 58.1474 17.5041 57.0758 18.1434 56.2233C18.7828 55.3708 19.7346 54.8073 20.7895 54.6566C21.8444 54.5059 22.9159 54.7804 23.7684 55.4197L31.5256 61.2376L50.4952 39.8947C50.8459 39.4996 51.2712 39.1775 51.7466 38.9469C52.2219 38.7162 52.7381 38.5817 53.2656 38.5508C53.7931 38.5199 54.3214 38.5934 54.8205 38.7671C55.3195 38.9407 55.7794 39.211 56.1738 39.5626H56.1684Z" fill="#0E7490"/>
</svg>
