<svg width="125" height="125" viewBox="0 0 125 125" fill="none" xmlns="http://www.w3.org/2000/svg">
<circle cx="62.5" cy="62.5" r="62" fill="#8FF1FF" fill-opacity="0.1" stroke="#A5F3FC"/>
<path fill-rule="evenodd" clip-rule="evenodd" d="M62.4963 39.733C63.562 39.733 64.5841 40.1563 65.3376 40.9098C66.0912 41.6633 66.5145 42.6853 66.5145 43.7509V62.9027L77.9586 69.7705C78.4165 70.0393 78.8167 70.3962 79.1359 70.8205C79.4551 71.2449 79.687 71.7283 79.8182 72.2428C79.9494 72.7573 79.9774 73.2927 79.9004 73.818C79.8234 74.3434 79.643 74.8483 79.3697 75.3036C79.0964 75.7588 78.7356 76.1554 78.308 76.4703C77.8805 76.7853 77.3948 77.0124 76.879 77.1385C76.3631 77.2646 75.8274 77.2872 75.3028 77.2051C74.7781 77.1229 74.275 76.9376 73.8224 76.6598L60.4282 68.6241C59.8334 68.2671 59.3412 67.7622 58.9995 67.1586C58.6577 66.5549 58.4781 65.8731 58.478 65.1794V43.7509C58.478 42.6853 58.9014 41.6633 59.6549 40.9098C60.4085 40.1563 61.4306 39.733 62.4963 39.733Z" fill="#0E7490"/>
<path fill-rule="evenodd" clip-rule="evenodd" d="M33.029 62.5009C33.0279 56.3765 34.9355 50.4039 38.4866 45.4138C42.0376 40.4237 47.0555 36.664 52.8426 34.6576C58.6296 32.6512 64.8981 32.4978 70.7764 34.2187C76.6546 35.9397 81.8505 39.4494 85.6414 44.2599L80.4659 49.4295C80.0906 49.8038 79.8348 50.281 79.7309 50.8007C79.6269 51.3204 79.6795 51.8593 79.882 52.3491C80.0845 52.839 80.4278 53.2577 80.8684 53.5524C81.309 53.847 81.8271 54.0044 82.3571 54.0045H97.3211C98.0316 54.0045 98.713 53.7223 99.2154 53.22C99.7178 52.7176 100 52.0363 100 51.3259V36.3581C100.001 35.8276 99.8443 35.3088 99.5501 34.8674C99.2558 34.4261 98.837 34.082 98.3469 33.8789C97.8569 33.6757 97.3175 33.6227 96.7972 33.7264C96.2769 33.8302 95.7992 34.0861 95.4245 34.4616L91.3527 38.5384C85.9527 32.0383 78.5154 27.5524 70.2464 25.8079C61.9775 24.0634 53.3617 25.1625 45.7956 28.9271C38.2296 32.6917 32.157 38.901 28.5622 46.5486C24.9674 54.1961 24.0611 62.8335 25.9903 71.0606C27.9195 79.2876 32.5711 86.622 39.191 91.8747C45.8109 97.1274 54.011 99.9906 62.462 100C70.913 100.009 79.1195 97.1645 85.751 91.9266C92.3826 86.6887 97.0506 79.3647 98.9981 71.142C99.2361 70.1071 99.0548 69.0201 98.4937 68.1185C97.9325 67.217 97.0373 66.5742 96.0036 66.3306C94.9699 66.0871 93.8818 66.2627 92.9772 66.8189C92.0726 67.3751 91.425 68.2668 91.1759 69.2991C89.516 76.3333 85.3283 82.5121 79.4094 86.6603C73.4905 90.8086 66.2532 92.6369 59.074 91.7976C51.8949 90.9582 45.2746 87.5097 40.4725 82.1081C35.6703 76.7064 33.0212 69.7282 33.029 62.5009Z" fill="#06B6D4"/>
</svg>
