<svg width="125" height="125" viewBox="0 0 125 125" fill="none" xmlns="http://www.w3.org/2000/svg">
<circle cx="62.5" cy="62.5" r="62" fill="#8FF1FF" fill-opacity="0.1" stroke="#A5F3FC"/>
<path fill-rule="evenodd" clip-rule="evenodd" d="M25 30.3571V49.1071C24.9991 49.6376 25.1556 50.1564 25.4499 50.5978C25.7442 51.0392 26.1628 51.3832 26.6529 51.5863C27.1429 51.7895 27.6822 51.8425 28.2025 51.7388C28.7227 51.635 29.2004 51.3791 29.575 51.0036L36.4964 44.0714L47.9982 55.5679C49.0086 56.5437 50.3618 57.0837 51.7664 57.0715C53.1711 57.0593 54.5147 56.4959 55.508 55.5026C56.5012 54.5093 57.0646 53.1657 57.0768 51.7611C57.089 50.3565 56.5491 49.0032 55.5732 47.9929L44.0768 36.4964L51.0036 29.575C51.3791 29.2004 51.635 28.7227 51.7388 28.2025C51.8425 27.6822 51.7895 27.1429 51.5863 26.6529C51.3832 26.1628 51.0392 25.7442 50.5978 25.4499C50.1564 25.1556 49.6376 24.9991 49.1071 25H27.6786C26.9682 25 26.2869 25.2822 25.7845 25.7845C25.2822 26.2869 25 26.9682 25 27.6786V30.3571ZM55.5732 77.0018C56.5491 75.9914 57.089 74.6382 57.0768 73.2336C57.0646 71.8289 56.5012 70.4853 55.508 69.492C54.5147 68.4988 53.1711 67.9354 51.7664 67.9232C50.3618 67.911 49.0086 68.4509 47.9982 69.4268L36.4964 80.9232L29.575 73.9964C29.2004 73.6209 28.7227 73.365 28.2025 73.2612C27.6822 73.1575 27.1429 73.2105 26.6529 73.4137C26.1628 73.6168 25.7442 73.9608 25.4499 74.4022C25.1556 74.8436 24.9991 75.3624 25 75.8929V97.3214C25 98.0318 25.2822 98.7131 25.7845 99.2155C26.2869 99.7178 26.9682 100 27.6786 100H49.1071C49.6376 100.001 50.1564 99.8444 50.5978 99.5501C51.0392 99.2558 51.3832 98.8372 51.5863 98.3471C51.7895 97.8571 51.8425 97.3178 51.7388 96.7975C51.635 96.2773 51.3791 95.7996 51.0036 95.425L44.0714 88.5036L55.5679 77.0018H55.5732ZM69.4268 69.4268C70.4314 68.4225 71.7938 67.8583 73.2143 67.8583C74.6348 67.8583 75.9972 68.4225 77.0018 69.4268L88.5036 80.9232L95.425 73.9964C95.7996 73.6209 96.2773 73.365 96.7975 73.2612C97.3178 73.1575 97.8571 73.2105 98.3471 73.4137C98.8372 73.6168 99.2558 73.9608 99.5501 74.4022C99.8444 74.8436 100.001 75.3624 100 75.8929V97.3214C100 98.0318 99.7178 98.7131 99.2155 99.2155C98.7131 99.7178 98.0318 100 97.3214 100H75.8929C75.3624 100.001 74.8436 99.8444 74.4022 99.5501C73.9608 99.2558 73.6168 98.8372 73.4137 98.3471C73.2105 97.8571 73.1575 97.3178 73.2612 96.7975C73.365 96.2773 73.6209 95.7996 73.9964 95.425L80.9232 88.5036L69.4268 77.0018C68.4225 75.9972 67.8583 74.6348 67.8583 73.2143C67.8583 71.7938 68.4225 70.4314 69.4268 69.4268ZM75.8929 25C75.3624 24.9991 74.8436 25.1556 74.4022 25.4499C73.9608 25.7442 73.6168 26.1628 73.4137 26.6529C73.2105 27.1429 73.1575 27.6822 73.2612 28.2025C73.365 28.7227 73.6209 29.2004 73.9964 29.575L80.9232 36.4964L69.4268 47.9982C68.4509 49.0086 67.911 50.3618 67.9232 51.7664C67.9354 53.1711 68.4988 54.5147 69.492 55.508C70.4853 56.5012 71.8289 57.0646 73.2336 57.0768C74.6382 57.089 75.9914 56.5491 77.0018 55.5732L88.5036 44.0768L95.425 51.0036C95.7996 51.3791 96.2773 51.635 96.7975 51.7388C97.3178 51.8425 97.8571 51.7895 98.3471 51.5863C98.8372 51.3832 99.2558 51.0392 99.5501 50.5978C99.8444 50.1564 100.001 49.6376 100 49.1071V27.6786C100 26.9682 99.7178 26.2869 99.2155 25.7845C98.7131 25.2822 98.0318 25 97.3214 25H75.8929Z" fill="#06B6D4"/>
</svg>
