<svg width="125" height="125" viewBox="0 0 125 125" fill="none" xmlns="http://www.w3.org/2000/svg">
<circle cx="62.5" cy="62.5" r="62" fill="#8FF1FF" fill-opacity="0.1" stroke="#A5F3FC"/>
<path d="M40.8057 61.5269L40.8378 76.4778C40.8378 77.1204 41.0258 77.7457 41.3735 78.2598L41.3788 78.2657L41.3842 78.2716L41.3949 78.2895L41.4217 78.3251L41.5074 78.4439L41.7752 78.8003C42.0055 79.0854 42.3377 79.4775 42.7662 79.9348C43.6339 80.8496 44.9088 82.0376 46.639 83.2196C50.1101 85.5897 55.3381 87.8766 62.4945 87.8766C69.6563 87.8766 74.8897 85.5838 78.3715 83.2196C80.1017 82.0435 81.3819 80.8555 82.2497 79.9408C82.6971 79.4678 83.1209 78.9681 83.5192 78.4439L83.5995 78.331L83.6263 78.2954L83.637 78.2776C83.637 78.2776 83.6478 78.2657 81.5158 76.4718L83.6477 78.2657C83.9996 77.7491 84.1896 77.1192 84.1888 76.4718V61.5269L66.2227 70.1576C65.0467 70.7224 63.7788 71.0138 62.4972 71.0138C61.2157 71.0138 59.9477 70.7224 58.7717 70.1576L40.8057 61.5269Z" fill="#06B6D4"/>
<path fill-rule="evenodd" clip-rule="evenodd" d="M34.0831 44.1166C35.5615 44.1166 36.7614 45.7798 36.7614 47.8291V88.7555C36.7614 90.8107 35.5615 92.4739 34.0831 92.4739C32.6047 92.4739 31.4048 90.8107 31.4048 88.7555V47.8291C31.4048 45.7798 32.6047 44.1166 34.0831 44.1166Z" fill="#0E7490"/>
<path fill-rule="evenodd" clip-rule="evenodd" d="M34.0886 85.2747C33.1946 85.2349 32.3025 85.3958 31.466 85.7477C30.6294 86.0996 29.8656 86.6353 29.2204 87.3226C28.5752 88.0099 28.0618 88.8347 27.7111 89.7475C27.3604 90.6603 27.1797 91.6422 27.1797 92.6344C27.1797 93.6265 27.3604 94.6085 27.7111 95.5212C28.0618 96.434 28.5752 97.2588 29.2204 97.9462C29.8656 98.6335 30.6294 99.1692 31.466 99.5211C32.3025 99.873 33.1946 100.034 34.0886 99.994C35.8026 99.9176 37.4236 99.1088 38.612 97.737C39.8004 96.3651 40.4641 94.5366 40.4641 92.6344C40.4641 90.7321 39.8004 88.9036 38.612 87.5318C37.4236 86.1599 35.8026 85.3511 34.0886 85.2747Z" fill="#06B6D4"/>
<path fill-rule="evenodd" clip-rule="evenodd" d="M63.566 25.2454C63.2295 25.0835 62.8667 25 62.5 25C62.1333 25 61.7705 25.0835 61.434 25.2454L26.6161 41.9723C26.1362 42.2023 25.7274 42.5829 25.4402 43.0674C25.153 43.5519 25 44.119 25 44.6988C25 45.2786 25.153 45.8457 25.4402 46.3301C25.7274 46.8146 26.1362 47.1953 26.6161 47.4252L61.434 64.1522C61.7705 64.3141 62.1333 64.3976 62.5 64.3976C62.8667 64.3976 63.2295 64.3141 63.566 64.1522L98.3839 47.4252C98.8638 47.1953 99.2726 46.8146 99.5598 46.3301C99.847 45.8457 100 45.2786 100 44.6988C100 44.119 99.847 43.5519 99.5598 43.0674C99.2726 42.5829 98.8638 42.2023 98.3839 41.9723L63.566 25.2454Z" fill="#06B6D4"/>
<path fill-rule="evenodd" clip-rule="evenodd" d="M40.8057 54.2443L61.4339 64.1521C61.7704 64.314 62.1332 64.3975 62.4999 64.3975C62.8666 64.3975 63.2294 64.314 63.5659 64.1521L84.1888 54.2443V74.7134V61.5267L66.2227 70.1575C65.0467 70.7223 63.7788 71.0137 62.4972 71.0137C61.2157 71.0137 59.9477 70.7223 58.7717 70.1575L40.8057 61.5267V54.2443ZM40.8057 61.5267L40.8324 74.7134H40.811V61.5267H40.8057Z" fill="#0E7490"/>
</svg>
