<svg width="125" height="125" viewBox="0 0 125 125" fill="none" xmlns="http://www.w3.org/2000/svg">
<circle cx="62.5" cy="62.5" r="62" fill="#8FF1FF" fill-opacity="0.1" stroke="#A5F3FC"/>
<path fill-rule="evenodd" clip-rule="evenodd" d="M79.15 20.1827C79.7332 19.6178 80.4771 19.2331 81.2873 19.0774C82.0974 18.9217 82.9372 19.002 83.7 19.3082L95.5166 24.0398C96.5357 24.4461 97.3464 25.2259 97.7713 26.2083C98.1961 27.1907 98.2005 28.2956 97.7833 29.2811L92.9555 40.6916C92.6436 41.4285 92.1124 42.0594 91.4291 42.5046C90.7457 42.9498 89.941 43.1893 89.1167 43.1927C88.2924 43.1962 87.4855 42.9634 86.7982 42.524C86.1109 42.0845 85.574 41.458 85.2555 40.7238L83.35 36.3248L35.3611 56.1257C34.8577 56.3335 34.3168 56.4436 33.7694 56.4495C33.2219 56.4555 32.6786 56.3573 32.1705 56.1606C31.6624 55.9638 31.1993 55.6723 30.8078 55.3027C30.4164 54.9332 30.1041 54.4928 29.8889 54.0067C29.6736 53.5206 29.5597 52.9983 29.5535 52.4697C29.5473 51.941 29.649 51.4164 29.8528 50.9257C30.0565 50.435 30.3584 49.9879 30.7411 49.6099C31.1238 49.2319 31.5799 48.9303 32.0833 48.7225L80.1333 28.9002L78.2611 24.5817C77.9407 23.846 77.8542 23.0349 78.0125 22.2516C78.1708 21.4683 78.5667 20.7481 79.15 20.1827Z" fill="#0E7490"/>
<path fill-rule="evenodd" clip-rule="evenodd" d="M94.4444 48.4006C95.9179 48.4006 97.3309 48.9658 98.3728 49.9719C99.4147 50.978 100 52.3425 100 53.7653V91.3177C100 92.0291 99.7073 92.7113 99.1864 93.2144C98.6655 93.7174 97.9589 94 97.2222 94H83.3333C82.5966 94 81.8901 93.7174 81.3691 93.2144C80.8482 92.7113 80.5556 92.0291 80.5556 91.3177V53.7653C80.5556 52.3425 81.1409 50.978 82.1827 49.9719C83.2246 48.9658 84.6377 48.4006 86.1111 48.4006H94.4444ZM66.6667 56.4476C68.1401 56.4476 69.5532 57.0128 70.595 58.0188C71.6369 59.0249 72.2222 60.3894 72.2222 61.8122V91.3177C72.2222 91.6699 72.1504 92.0187 72.0108 92.3442C71.8712 92.6696 71.6666 92.9653 71.4086 93.2144C71.1507 93.4635 70.8445 93.661 70.5075 93.7958C70.1704 93.9306 69.8092 94 69.4444 94H55.5556C55.1908 94 54.8296 93.9306 54.4925 93.7958C54.1555 93.661 53.8493 93.4635 53.5914 93.2144C53.3334 92.9653 53.1288 92.6696 52.9892 92.3442C52.8496 92.0187 52.7778 91.6699 52.7778 91.3177V61.8122C52.7778 60.3894 53.3631 59.0249 54.405 58.0188C55.4468 57.0128 56.8599 56.4476 58.3333 56.4476H66.6667ZM42.8167 66.0556C41.775 65.0495 40.3622 64.4841 38.8889 64.4838H30.5556C29.0821 64.4838 27.6691 65.049 26.6272 66.0551C25.5853 67.0611 25 68.4256 25 69.8484V91.307C25 92.0184 25.2927 92.7006 25.8136 93.2037C26.3345 93.7067 27.0411 93.9893 27.7778 93.9893H41.6667C42.4034 93.9893 43.1099 93.7067 43.6309 93.2037C44.1518 92.7006 44.4444 92.0184 44.4444 91.307V69.8484C44.4441 68.4258 43.8586 67.0615 42.8167 66.0556Z" fill="#06B6D4"/>
</svg>
