<svg width="125" height="125" viewBox="0 0 125 125" fill="none" xmlns="http://www.w3.org/2000/svg">
<circle cx="62.5" cy="62.5" r="62" fill="#8FF1FF" fill-opacity="0.1" stroke="#A5F3FC"/>
<path fill-rule="evenodd" clip-rule="evenodd" d="M58.7857 57.1428C63.0481 57.1428 67.1359 55.4496 70.1499 52.4356C73.1639 49.4217 74.8571 45.3338 74.8571 41.0714C74.8571 36.809 73.1639 32.7212 70.1499 29.7072C67.1359 26.6932 63.0481 25 58.7857 25C54.5233 25 50.4355 26.6932 47.4215 29.7072C44.4075 32.7212 42.7143 36.809 42.7143 41.0714C42.7143 45.3338 44.4075 49.4217 47.4215 52.4356C50.4355 55.4496 54.5233 57.1428 58.7857 57.1428ZM34.6786 91.9643H64.4107C63.4544 89.8122 63.2337 87.4051 63.7829 85.115C64.332 82.825 65.6203 80.7796 67.4486 79.2953C69.2769 77.811 71.5432 76.9703 73.8973 76.9034C76.2513 76.8365 78.5618 77.5469 80.4714 78.925L83.6857 81.0946L84.0982 80.5C82.0145 74.5252 77.8836 69.4806 72.4371 66.2595C66.9907 63.0384 60.58 61.8486 54.3404 62.9009C48.1008 63.9531 42.4349 67.1794 38.346 72.0086C34.2571 76.8377 32.0091 82.958 32 89.2857C32 89.9961 32.2822 90.6774 32.7845 91.1797C33.2869 91.6821 33.9682 91.9643 34.6786 91.9643Z" fill="#06B6D4"/>
<path fill-rule="evenodd" clip-rule="evenodd" d="M105.393 68.6607C106.245 69.3001 106.809 70.2519 106.959 71.3068C107.11 72.3617 106.836 73.4333 106.196 74.2857L89.482 98.3929C88.8426 99.2454 87.8908 99.809 86.8359 99.9596C85.781 100.11 84.7095 99.8358 83.857 99.1965L71.8034 90.8393C71.3813 90.5227 71.0257 90.1261 70.7569 89.6721C70.4881 89.2181 70.3113 88.7156 70.2367 88.1932C70.1621 87.6709 70.191 87.139 70.322 86.6279C70.4529 86.1168 70.6833 85.6364 70.9999 85.2143C71.6392 84.3618 72.591 83.7983 73.6459 83.6476C74.1683 83.5729 74.7002 83.6019 75.2113 83.7329C75.7224 83.8638 76.2028 84.0942 76.6249 84.4107L85.4641 90.3572L99.7677 69.4643C100.084 69.0422 100.481 68.6866 100.935 68.4178C101.389 68.1489 101.891 67.9722 102.414 67.8976C102.936 67.8229 103.468 67.8519 103.979 67.9829C104.49 68.1138 104.971 68.3442 105.393 68.6607Z" fill="#0E7490"/>
</svg>
