<svg width="75" height="75" viewBox="0 0 75 75" fill="none" xmlns="http://www.w3.org/2000/svg">
<path fill-rule="evenodd" clip-rule="evenodd" d="M53.4371 3.69814C46.1885 0.20251 38.0028 -0.851921 30.1049 0.692632C22.2071 2.23719 15.0217 6.29767 9.624 12.2665C4.22631 18.2353 0.906542 25.7915 0.161453 33.8044C-0.583636 41.8173 1.28602 49.8561 5.49065 56.7178L0.171008 70.8874C0.00470692 71.3302 -0.0413697 71.8092 0.0374634 72.2756C0.116297 72.742 0.317228 73.1792 0.619826 73.5427C0.922425 73.9063 1.3159 74.1832 1.76024 74.3454C2.20458 74.5076 2.68394 74.5492 3.14958 74.466L21.7174 71.1071C30.6564 75.3134 40.9002 75.7964 50.1953 72.4499C59.4904 69.1033 67.0754 62.2014 71.2817 53.2624C75.488 44.3234 75.971 34.0796 72.6245 24.7845C69.278 15.4894 62.3761 7.90443 53.4371 3.69814Z" fill="#06B6D4"/>
<path fill-rule="evenodd" clip-rule="evenodd" d="M38.298 23.2624C37.5246 23.1079 36.7265 23.1269 35.9613 23.318C35.1961 23.5092 34.4829 23.8678 33.8731 24.368C33.2632 24.8681 32.772 25.4974 32.4348 26.2104C32.0976 26.9234 31.9228 27.7023 31.923 28.491C31.923 28.9307 31.8364 29.3661 31.6681 29.7723C31.4999 30.1785 31.2532 30.5477 30.9423 30.8586C30.6314 31.1695 30.2623 31.4161 29.8561 31.5844C29.4499 31.7526 29.0145 31.8392 28.5748 31.8392C28.1351 31.8392 27.6997 31.7526 27.2935 31.5844C26.8872 31.4161 26.5181 31.1695 26.2072 30.8586C25.8963 30.5477 25.6497 30.1785 25.4814 29.7723C25.3132 29.3661 25.2266 28.9307 25.2266 28.491C25.2273 26.2568 25.8504 24.067 27.0259 22.1671C28.2015 20.2671 29.883 18.7322 31.882 17.7344C33.881 16.7365 36.1184 16.3153 38.3434 16.5178C40.5684 16.7203 42.693 17.5386 44.4791 18.8809C46.2651 20.2232 47.6419 22.0365 48.4551 24.1174C49.2683 26.1983 49.4859 28.4647 49.0833 30.6623C48.6807 32.8599 47.6739 34.9019 46.1757 36.5594C44.6776 38.2169 42.7474 39.4244 40.6016 40.0464V42.9607C40.6016 43.8487 40.2488 44.7003 39.6209 45.3282C38.993 45.9561 38.1414 46.3089 37.2533 46.3089C36.3653 46.3089 35.5137 45.9561 34.8858 45.3282C34.2579 44.7003 33.9051 43.8487 33.9051 42.9607V37.1749C33.9051 35.3214 35.4051 33.8267 37.2587 33.8267C38.5873 33.8343 39.8708 33.3455 40.8577 32.456C41.8446 31.5665 42.4638 30.3405 42.5939 29.0183C42.724 27.6961 42.3556 26.373 41.5609 25.3082C40.7662 24.2435 39.6026 23.5139 38.298 23.2624ZM37.2587 60.7732C35.9871 60.7717 34.7681 60.2652 33.8699 59.3651C32.9718 58.4649 32.468 57.2448 32.4694 55.9732C32.4708 54.7015 32.9774 53.4826 33.8775 52.5844C34.7777 51.6862 35.9978 51.1825 37.2694 51.1839H37.2801C38.5518 51.1853 39.7707 51.6918 40.6689 52.592C41.5671 53.4922 42.0708 54.7123 42.0694 55.9839C42.068 57.2555 41.5615 58.4745 40.6613 59.3726C39.7611 60.2708 38.541 60.7746 37.2694 60.7732H37.2587Z" fill="#164E63"/>
</svg>
