<svg width="63" height="74" viewBox="0 0 63 74" fill="none" xmlns="http://www.w3.org/2000/svg">
<path fill-rule="evenodd" clip-rule="evenodd" d="M22.2268 4.01432C22.2261 3.22018 21.9901 2.44406 21.5485 1.78397C21.107 1.12389 20.4798 0.609456 19.746 0.305645C19.0123 0.00183389 18.205 -0.077727 17.4261 0.0770108C16.6471 0.231749 15.9315 0.613844 15.3696 1.17504L2.5125 14.0322C1.76009 14.7855 1.33746 15.8067 1.33746 16.8715C1.33746 17.9362 1.76009 18.9574 2.5125 19.7108L15.3696 32.5625C15.9315 33.1237 16.6471 33.5058 17.4261 33.6606C18.205 33.8153 19.0123 33.7357 19.746 33.4319C20.4798 33.1281 21.107 32.6137 21.5485 31.9536C21.9901 31.2935 22.2261 30.5174 22.2268 29.7233V22.2179H31.0607C35.0844 22.2179 39.0178 23.4109 42.3635 25.6461C45.7092 27.8814 48.3171 31.0584 49.8573 34.7756C51.3976 38.4928 51.8012 42.5832 51.017 46.5298C50.2328 50.4763 48.296 54.1017 45.4516 56.9476C42.6072 59.7936 38.9828 61.7322 35.0367 62.5185C31.0906 63.3048 26.9999 62.9034 23.2819 61.365C19.5639 59.8267 16.3855 57.2205 14.1485 53.876C11.9115 50.5314 10.7164 46.5987 10.7143 42.575C10.7143 41.8715 10.5757 41.1749 10.3065 40.525C10.0373 39.875 9.64267 39.2844 9.14521 38.787C8.64776 38.2895 8.05719 37.8949 7.40723 37.6257C6.75727 37.3565 6.06065 37.2179 5.35714 37.2179C4.65363 37.2179 3.95701 37.3565 3.30705 37.6257C2.65709 37.8949 2.06653 38.2895 1.56907 38.787C1.07161 39.2844 0.67701 39.875 0.407788 40.525C0.138567 41.1749 -1.04831e-08 41.8715 0 42.575C0.0010595 48.718 1.82364 54.7228 5.23728 59.83C8.65092 64.9372 13.5023 68.9175 19.178 71.2676C24.8537 73.6177 31.0988 74.232 37.1236 73.0329C43.1485 71.8338 48.6825 68.8752 53.0258 64.531C57.3692 60.1869 60.3269 54.6524 61.525 48.6274C62.723 42.6023 62.1076 36.3573 59.7566 30.682C57.4055 25.0067 53.4244 20.156 48.3166 16.7433C43.2088 13.3305 37.2037 11.509 31.0607 11.509H22.2268V4.01432Z" fill="#06B6D4"/>
</svg>
